<?xml version="1.0" encoding="utf-8"?>
<!-- Generator: Adobe Illustrator 22.0.1, SVG Export Plug-In . SVG Version: 6.00 Build 0)  -->
<svg version="1.1" id="Calque_1" xmlns="http://www.w3.org/2000/svg" xmlns:xlink="http://www.w3.org/1999/xlink" x="0px" y="0px"
	 viewBox="0 0 400 400" style="enable-background:new 0 0 400 400;" xml:space="preserve">
<style type="text/css">
	.st0{fill:#D1D1D1;}
	.st1{fill:#F7DF1E;}
	.st2{fill:#9500FF;}
	.st3{fill:#FFFFFF;}
	.st4{fill:none;stroke:#9500FF;stroke-width:2;stroke-miterlimit:10;}
	.st5{fill:none;stroke:#9500FF;stroke-width:2;stroke-miterlimit:10;stroke-dasharray:5.0077,5.0077;}
</style>
<rect x="0.6" y="22.9" class="st0" width="347.3" height="347.3"/>
<path d="M233.9,294.2c7,11.4,16.1,19.8,32.2,19.8c13.5,0,22.2-6.8,22.2-16.1c0-11.2-8.9-15.2-23.8-21.7l-8.2-3.5
	c-23.5-10-39.2-22.6-39.2-49.2c0-24.5,18.6-43.1,47.8-43.1c20.7,0,35.7,7.2,46.4,26.1l-25.4,16.3c-5.6-10-11.6-14-21-14
	c-9.6,0-15.6,6.1-15.6,14c0,9.8,6.1,13.8,20.1,19.8l8.2,3.5c27.7,11.9,43.4,24,43.4,51.3c0,29.4-23.1,45.5-54.1,45.5
	c-30.3,0-49.9-14.4-59.5-33.4L233.9,294.2z"/>
<path d="M118.6,297c5.1,9.1,9.8,16.8,21,16.8c10.7,0,17.5-4.2,17.5-20.5v-111h32.6v111.4c0,33.8-19.8,49.2-48.7,49.2
	c-26.1,0-41.3-13.5-49-29.8L118.6,297z"/>
<g>
	<path class="st1" d="M139.6,313.8c8.5,0,14.6-2.7,16.7-12h-34.9C125.6,308.7,130.4,313.8,139.6,313.8z"/>
	<path class="st1" d="M266.1,314c11.6,0,19.5-4.9,21.6-12.2h-48.3C245.7,309.2,253.8,314,266.1,314z"/>
	<path class="st1" d="M320.7,301.8c-2.2,26.6-24.4,41.2-53.9,41.2c-30.3,0-49.9-14.4-59.5-33.4l13.4-7.8h-31.5
		c-3,28.2-21.8,41.1-48.3,41.1c-26.1,0-41.3-13.5-49-29.8l18.7-11.3H0.6v68.4h347.3v-68.4H320.7z"/>
	<path d="M139.6,313.8c-9.2,0-14-5.1-18.2-12h-10.7L92,313.1c7.7,16.3,22.8,29.8,49,29.8c26.5,0,45.3-12.9,48.3-41.1h-33
		C154.2,311.2,148.1,313.8,139.6,313.8z"/>
	<path d="M266.1,314c-12.2,0-20.4-4.9-26.7-12.2h-18.6l-13.4,7.8c9.6,18.9,29.2,33.4,59.5,33.4c29.4,0,51.7-14.5,53.9-41.2h-33
		C285.6,309.1,277.6,314,266.1,314z"/>
</g>
<g>
	<circle class="st2" cx="375.2" cy="301.6" r="24.1"/>
	<g>
		<path class="st3" d="M362.8,309.9v-2.3l4.3-8.2c0.2-0.4,0.3-0.8,0.4-1.1c0-0.3,0-0.7,0-1.1c0-0.2,0-0.4,0-0.6
			c0-0.2-0.1-0.4-0.1-0.6c-0.1-0.2-0.2-0.3-0.4-0.4c-0.2-0.1-0.4-0.2-0.7-0.2c-0.4,0-0.6,0.1-0.9,0.3c-0.2,0.2-0.3,0.5-0.3,0.9v1.4
			h-2.4v-1.3c0-0.5,0.1-1,0.3-1.4c0.2-0.4,0.4-0.8,0.8-1.2c0.3-0.3,0.7-0.6,1.1-0.8c0.4-0.2,0.9-0.3,1.4-0.3c0.6,0,1.2,0.1,1.6,0.3
			c0.4,0.2,0.8,0.5,1.1,0.9c0.3,0.4,0.5,0.8,0.6,1.3c0.1,0.5,0.2,1,0.2,1.6c0,0.4,0,0.8,0,1c0,0.3,0,0.5-0.1,0.8
			c0,0.3-0.1,0.5-0.2,0.8c-0.1,0.3-0.3,0.6-0.4,0.9l-3.5,6.8h4.3v2.4H362.8z"/>
		<path class="st3" d="M371.5,296.6c0-0.6,0.1-1.1,0.3-1.5c0.2-0.4,0.5-0.8,0.8-1.1c0.3-0.3,0.7-0.6,1.1-0.7
			c0.4-0.2,0.9-0.2,1.4-0.2s0.9,0.1,1.4,0.2c0.4,0.2,0.8,0.4,1.1,0.7c0.3,0.3,0.6,0.7,0.8,1.1c0.2,0.4,0.3,0.9,0.3,1.5v9.9
			c0,0.6-0.1,1.1-0.3,1.5c-0.2,0.4-0.5,0.8-0.8,1.1c-0.3,0.3-0.7,0.6-1.1,0.7c-0.4,0.2-0.9,0.2-1.4,0.2s-0.9-0.1-1.4-0.2
			c-0.4-0.2-0.8-0.4-1.1-0.7c-0.3-0.3-0.6-0.7-0.8-1.1c-0.2-0.4-0.3-0.9-0.3-1.5V296.6z M374,306.5c0,0.3,0.1,0.6,0.3,0.9
			c0.2,0.2,0.5,0.3,0.8,0.3c0.3,0,0.6-0.1,0.8-0.3c0.2-0.2,0.3-0.5,0.3-0.9v-9.9c0-0.3-0.1-0.6-0.3-0.9c-0.2-0.2-0.5-0.3-0.8-0.3
			c-0.3,0-0.6,0.1-0.8,0.3c-0.2,0.2-0.3,0.5-0.3,0.9V306.5z"/>
		<path class="st3" d="M381.7,298.3c-0.6,0-1.1-0.2-1.5-0.5c-0.4-0.3-0.5-0.8-0.5-1.3V295c0-0.6,0.2-1.1,0.5-1.4
			c0.4-0.3,0.8-0.5,1.5-0.5c0.6,0,1.1,0.2,1.5,0.5c0.4,0.3,0.5,0.8,0.5,1.4v1.5c0,0.5-0.2,1-0.5,1.3
			C382.8,298.1,382.3,298.3,381.7,298.3z M380,309.9l5.7-16.8h1.6l-5.7,16.8H380z M381.7,296.9c0.2,0,0.3-0.1,0.4-0.2
			c0.1-0.1,0.2-0.3,0.2-0.4v-1.2c0-0.2-0.1-0.3-0.2-0.4c-0.1-0.1-0.3-0.2-0.4-0.2c-0.2,0-0.3,0.1-0.4,0.2c-0.1,0.1-0.2,0.3-0.2,0.4
			v1.2c0,0.2,0.1,0.3,0.2,0.4C381.4,296.8,381.6,296.9,381.7,296.9z M385.6,310.1c-0.6,0-1.1-0.2-1.5-0.5c-0.4-0.3-0.5-0.8-0.5-1.3
			v-1.5c0-0.6,0.2-1.1,0.5-1.4c0.4-0.3,0.8-0.5,1.5-0.5c0.6,0,1.1,0.2,1.5,0.5c0.4,0.3,0.5,0.8,0.5,1.4v1.5c0,0.5-0.2,1-0.5,1.3
			C386.7,309.9,386.2,310.1,385.6,310.1z M385,308.1c0,0.2,0.1,0.3,0.2,0.4c0.1,0.1,0.3,0.2,0.4,0.2c0.2,0,0.3-0.1,0.4-0.2
			c0.1-0.1,0.2-0.3,0.2-0.4v-1.2c0-0.2-0.1-0.3-0.2-0.4s-0.3-0.2-0.4-0.2c-0.2,0-0.3,0.1-0.4,0.2s-0.2,0.3-0.2,0.4V308.1z"/>
	</g>
	<g>
		<g>
			<line class="st4" x1="351.1" y1="302.1" x2="348.6" y2="302.1"/>
			<line class="st5" x1="343.6" y1="302.1" x2="5.6" y2="302.1"/>
			<line class="st4" x1="3.1" y1="302.1" x2="0.6" y2="302.1"/>
		</g>
	</g>
</g>
</svg>
