<svg version="1.1" id="HJx7c9c-dFz" xmlns="http://www.w3.org/2000/svg" xmlns:xlink="http://www.w3.org/1999/xlink" x="0px" y="0px" viewBox="0 0 400 400" style="enable-background:new 0 0 400 400;">
    <style type="text/css">
        @-webkit-keyframes ryfX555W_KG_BJYCo-uKG_Animation{0%{-webkit-transform: translate(-180px, 10px);transform: translate(-180px, 10px);}12.50%{-webkit-transform: translate(-168.75px, 0px);transform: translate(-168.75px, 0px);}25%{-webkit-transform: translate(-157.5px, 10px);transform: translate(-157.5px, 10px);}37.50%{-webkit-transform: translate(-146.25px, 0px);transform: translate(-146.25px, 0px);}50%{-webkit-transform: translate(-135px, 10px);transform: translate(-135px, 10px);}62.50%{-webkit-transform: translate(-123.75px, 0px);transform: translate(-123.75px, 0px);}75%{-webkit-transform: translate(-112.5px, 10px);transform: translate(-112.5px, 10px);}87.50%{-webkit-transform: translate(-101.25px, 0px);transform: translate(-101.25px, 0px);}100%{-webkit-transform: translate(-90px, 10px);transform: translate(-90px, 10px);}}@keyframes ryfX555W_KG_BJYCo-uKG_Animation{0%{-webkit-transform: translate(-180px, 10px);transform: translate(-180px, 10px);}12.50%{-webkit-transform: translate(-168.75px, 0px);transform: translate(-168.75px, 0px);}25%{-webkit-transform: translate(-157.5px, 10px);transform: translate(-157.5px, 10px);}37.50%{-webkit-transform: translate(-146.25px, 0px);transform: translate(-146.25px, 0px);}50%{-webkit-transform: translate(-135px, 10px);transform: translate(-135px, 10px);}62.50%{-webkit-transform: translate(-123.75px, 0px);transform: translate(-123.75px, 0px);}75%{-webkit-transform: translate(-112.5px, 10px);transform: translate(-112.5px, 10px);}87.50%{-webkit-transform: translate(-101.25px, 0px);transform: translate(-101.25px, 0px);}100%{-webkit-transform: translate(-90px, 10px);transform: translate(-90px, 10px);}}@-webkit-keyframes ByXQc9c-_tf_BknAq-uKz_Animation{0%{-webkit-transform: translate(90px, 0px);transform: translate(90px, 0px);}12.50%{-webkit-transform: translate(78.75px, 10px);transform: translate(78.75px, 10px);}25%{-webkit-transform: translate(67.5px, 0px);transform: translate(67.5px, 0px);}37.50%{-webkit-transform: translate(56.25px, 10px);transform: translate(56.25px, 10px);}50%{-webkit-transform: translate(45px, 0px);transform: translate(45px, 0px);}62.50%{-webkit-transform: translate(33.75px, 10px);transform: translate(33.75px, 10px);}75%{-webkit-transform: translate(22.5px, 0px);transform: translate(22.5px, 0px);}87.50%{-webkit-transform: translate(11.25px, 10px);transform: translate(11.25px, 10px);}100%{-webkit-transform: translate(0px, 0px);transform: translate(0px, 0px);}}@keyframes ByXQc9c-_tf_BknAq-uKz_Animation{0%{-webkit-transform: translate(90px, 0px);transform: translate(90px, 0px);}12.50%{-webkit-transform: translate(78.75px, 10px);transform: translate(78.75px, 10px);}25%{-webkit-transform: translate(67.5px, 0px);transform: translate(67.5px, 0px);}37.50%{-webkit-transform: translate(56.25px, 10px);transform: translate(56.25px, 10px);}50%{-webkit-transform: translate(45px, 0px);transform: translate(45px, 0px);}62.50%{-webkit-transform: translate(33.75px, 10px);transform: translate(33.75px, 10px);}75%{-webkit-transform: translate(22.5px, 0px);transform: translate(22.5px, 0px);}87.50%{-webkit-transform: translate(11.25px, 10px);transform: translate(11.25px, 10px);}100%{-webkit-transform: translate(0px, 0px);transform: translate(0px, 0px);}}#HJx7c9c-dFz *{-webkit-animation-duration: 4s;animation-duration: 4s;-webkit-animation-iteration-count: infinite;animation-iteration-count: infinite;-webkit-animation-timing-function: cubic-bezier(0, 0, 1, 1);animation-timing-function: cubic-bezier(0, 0, 1, 1);transform-box: fill-box;-webkit-transform-origin: 50% 50%;transform-origin: 50% 50%;}#BkVXq5cbOYf{fill: #FFFFFF;}#HJB7cq9-uFf{fill: #FFFFFF;}#H1WXq9cZOYM{fill: #D1D1D1;}#ryfX555W_KG{fill: #FFF3AE;}#ByXQc9c-_tf{fill: #F7DF1E;}#ByXQc9c-_tf_BknAq-uKz{-webkit-animation-name: ByXQc9c-_tf_BknAq-uKz_Animation;animation-name: ByXQc9c-_tf_BknAq-uKz_Animation;-webkit-transform-origin: undefined;transform-origin: undefined;-webkit-animation-timing-function: cubic-bezier(0.42, 0, 0.58, 1);animation-timing-function: cubic-bezier(0.42, 0, 0.58, 1);}#ryfX555W_KG_BJYCo-uKG{-webkit-animation-name: ryfX555W_KG_BJYCo-uKG_Animation;animation-name: ryfX555W_KG_BJYCo-uKG_Animation;-webkit-transform-origin: undefined;transform-origin: undefined;}
    </style>
    <rect x="0.6" width="399.4" height="399.4" id="H1WXq9cZOYM"/>
    <g id="ryfX555W_KG_BJYCo-uKG" data-animator-group="true" data-animator-type="0">
        <path d="M0,399.4h542l-0.5-65.5c-0.1-15.8-20-23.8-32-12.8l-0.3,0.3c-7.3,6.7-18.9,6.7-26.2,0L464.1,304&#10;&#9;c-7.3-6.7-18.9-6.7-26.2,0L419,321.3c-7.3,6.7-18.9,6.7-26.2,0L373.9,304c-7.3-6.7-18.9-6.7-26.2,0l-18.9,17.3&#10;&#9;c-7.3,6.7-18.9,6.7-26.2,0L283.7,304c-7.3-6.7-18.9-6.7-26.2,0l-18.9,17.3c-7.3,6.7-18.9,6.7-26.2,0L193.5,304&#10;&#9;c-7.3-6.7-18.9-6.7-26.2,0l-18.9,17.3c-7.3,6.7-18.9,6.7-26.2,0L103.3,304c-7.3-6.7-18.9-6.7-26.2,0l-18.9,17.3&#10;&#9;c-7.3,6.7-18.9,6.7-26.2,0l0,0c-12-11-32-2.9-32,13L0,399.4z" id="ryfX555W_KG"/>
    </g>
    <g id="ByXQc9c-_tf_BknAq-uKz" data-animator-group="true" data-animator-type="0">
        <path d="M400.3,400.4H-130v-52.9c0-8.4,3.5-16.5,9.8-22.3l12.3-11.5c12.3-11.5,31.8-11.5,44.1,0l0,0&#10;&#9;c12.3,11.5,31.8,11.5,44.1,0l0,0c12.3-11.5,31.8-11.5,44.1,0l0,0c12.3,11.5,31.8,11.5,44.1,0l0,0c12.3-11.5,31.8-11.5,44.1,0l0,0&#10;&#9;c12.3,11.5,31.8,11.5,44.1,0l0,0c12.3-11.5,31.8-11.5,44.1,0l0,0c12.3,11.5,31.8,11.5,44.1,0l0,0c12.3-11.5,31.8-11.5,44.1,0l0,0&#10;&#9;c12.3,11.5,31.8,11.5,44.1,0l0,0c12.3-11.5,31.8-11.5,44.1,0l22.1,20.6L400.3,400.4z" id="ByXQc9c-_tf"/>
    </g>
    <path d="M268.9,312c8.1,13.1,18.5,22.8,37,22.8c15.5,0,25.5-7.8,25.5-18.5c0-12.9-10.2-17.5-27.4-25l-9.4-4&#10;&#9;c-27-11.5-45.1-26-45.1-56.6c0-28.2,21.4-49.6,55-49.6c23.8,0,41.1,8.3,53.4,30l-29.2,18.7c-6.4-11.5-13.3-16.1-24.2-16.1&#10;&#9;c-11,0-17.9,7-17.9,16.1c0,11.3,7,15.9,23.1,22.8l9.4,4c31.9,13.7,49.9,27.6,49.9,59c0,33.8-26.6,52.3-62.2,52.3&#10;&#9;c-34.8,0-57.4-16.6-68.4-38.4L268.9,312z" id="BkVXq5cbOYf"/>
    <path d="M136.3,315.2c5.9,10.5,11.3,19.3,24.2,19.3c12.3,0,20.1-4.8,20.1-23.6V183.3h37.5v128.1c0,38.9-22.8,56.6-56,56.6&#10;&#9;c-30,0-47.5-15.5-56.4-34.3L136.3,315.2z" id="HJB7cq9-uFf"/>
</svg>