<svg version="1.1" id="HkDhkydYM" xmlns="http://www.w3.org/2000/svg" xmlns:xlink="http://www.w3.org/1999/xlink" x="0px" y="0px" viewBox="0 0 400 400" style="enable-background:new 0 0 400 400;">
    <style type="text/css">
        @-webkit-keyframes SyFDnkyOtf_rJEbfJdYf_Animation{75%{-webkit-transform: translate(500px, 0px);transform: translate(500px, 0px);}90%{-webkit-transform: translate(0px, 0px);transform: translate(0px, 0px);}0%{-webkit-transform: translate(500px, 0px);transform: translate(500px, 0px);}100%{-webkit-transform: translate(0px, 0px);transform: translate(0px, 0px);}}@keyframes SyFDnkyOtf_rJEbfJdYf_Animation{75%{-webkit-transform: translate(500px, 0px);transform: translate(500px, 0px);}90%{-webkit-transform: translate(0px, 0px);transform: translate(0px, 0px);}0%{-webkit-transform: translate(500px, 0px);transform: translate(500px, 0px);}100%{-webkit-transform: translate(0px, 0px);transform: translate(0px, 0px);}}@-webkit-keyframes SkXw3kkOYz_Animation{50%{opacity: 0;}75%{opacity: 1;}0%{opacity: 0;}100%{opacity: 1;}}@keyframes SkXw3kkOYz_Animation{50%{opacity: 0;}75%{opacity: 1;}0%{opacity: 0;}100%{opacity: 1;}}@-webkit-keyframes SkXw3kkOYz_BJrLbJOKG_Animation{50%{-webkit-transform: scale(1, 0);transform: scale(1, 0);}75%{-webkit-transform: scale(1, 1);transform: scale(1, 1);}0%{-webkit-transform: scale(1, 0);transform: scale(1, 0);}100%{-webkit-transform: scale(1, 1);transform: scale(1, 1);}}@keyframes SkXw3kkOYz_BJrLbJOKG_Animation{50%{-webkit-transform: scale(1, 0);transform: scale(1, 0);}75%{-webkit-transform: scale(1, 1);transform: scale(1, 1);}0%{-webkit-transform: scale(1, 0);transform: scale(1, 0);}100%{-webkit-transform: scale(1, 1);transform: scale(1, 1);}}@-webkit-keyframes SyWP21ydYM_S1RlWkOtG_Animation{0%{-webkit-transform: rotate(0deg);transform: rotate(0deg);}50%{-webkit-transform: rotate(1080deg);transform: rotate(1080deg);}100%{-webkit-transform: rotate(1080deg);transform: rotate(1080deg);}}@keyframes SyWP21ydYM_S1RlWkOtG_Animation{0%{-webkit-transform: rotate(0deg);transform: rotate(0deg);}50%{-webkit-transform: rotate(1080deg);transform: rotate(1080deg);}100%{-webkit-transform: rotate(1080deg);transform: rotate(1080deg);}}@-webkit-keyframes SyWP21ydYM_Animation{0%{opacity: 0;}50%{opacity: 1;}100%{opacity: 1;}}@keyframes SyWP21ydYM_Animation{0%{opacity: 0;}50%{opacity: 1;}100%{opacity: 1;}}@-webkit-keyframes SyWP21ydYM_S1u-0xbydKf_Animation{0%{-webkit-transform: scale(0, 0);transform: scale(0, 0);}50%{-webkit-transform: scale(1, 1);transform: scale(1, 1);}100%{-webkit-transform: scale(1, 1);transform: scale(1, 1);}}@keyframes SyWP21ydYM_S1u-0xbydKf_Animation{0%{-webkit-transform: scale(0, 0);transform: scale(0, 0);}50%{-webkit-transform: scale(1, 1);transform: scale(1, 1);}100%{-webkit-transform: scale(1, 1);transform: scale(1, 1);}}@-webkit-keyframes SyWP21ydYM_HJ6gZyOtf_Animation{0%{-webkit-transform: translate(3000px, 0px);transform: translate(3000px, 0px);}50%{-webkit-transform: translate(0px, 0px);transform: translate(0px, 0px);}100%{-webkit-transform: translate(0px, 0px);transform: translate(0px, 0px);}}@keyframes SyWP21ydYM_HJ6gZyOtf_Animation{0%{-webkit-transform: translate(3000px, 0px);transform: translate(3000px, 0px);}50%{-webkit-transform: translate(0px, 0px);transform: translate(0px, 0px);}100%{-webkit-transform: translate(0px, 0px);transform: translate(0px, 0px);}}@-webkit-keyframes B1fvnyJdFG_BkuneJ_Kf_Animation{0%{-webkit-transform: rotate(0deg);transform: rotate(0deg);}50%{-webkit-transform: rotate(1080deg);transform: rotate(1080deg);}100%{-webkit-transform: rotate(1080deg);transform: rotate(1080deg);}}@keyframes B1fvnyJdFG_BkuneJ_Kf_Animation{0%{-webkit-transform: rotate(0deg);transform: rotate(0deg);}50%{-webkit-transform: rotate(1080deg);transform: rotate(1080deg);}100%{-webkit-transform: rotate(1080deg);transform: rotate(1080deg);}}@-webkit-keyframes B1fvnyJdFG_Animation{0%{opacity: 0;}50%{opacity: 1;}100%{opacity: 1;}}@keyframes B1fvnyJdFG_Animation{0%{opacity: 0;}50%{opacity: 1;}100%{opacity: 1;}}@-webkit-keyframes B1fvnyJdFG_HkVldUg1uYM_Animation{0%{-webkit-transform: scale(0, 0);transform: scale(0, 0);}50%{-webkit-transform: scale(1, 1);transform: scale(1, 1);}100%{-webkit-transform: scale(1, 1);transform: scale(1, 1);}}@keyframes B1fvnyJdFG_HkVldUg1uYM_Animation{0%{-webkit-transform: scale(0, 0);transform: scale(0, 0);}50%{-webkit-transform: scale(1, 1);transform: scale(1, 1);}100%{-webkit-transform: scale(1, 1);transform: scale(1, 1);}}@-webkit-keyframes B1fvnyJdFG_HkDLlk_Yz_Animation{0%{-webkit-transform: translate(-3000px, 0px);transform: translate(-3000px, 0px);}50%{-webkit-transform: translate(0px, 0px);transform: translate(0px, 0px);}100%{-webkit-transform: translate(0px, 0px);transform: translate(0px, 0px);}}@keyframes B1fvnyJdFG_HkDLlk_Yz_Animation{0%{-webkit-transform: translate(-3000px, 0px);transform: translate(-3000px, 0px);}50%{-webkit-transform: translate(0px, 0px);transform: translate(0px, 0px);}100%{-webkit-transform: translate(0px, 0px);transform: translate(0px, 0px);}}@-webkit-keyframes rklwhJkdKG_Animation{0%{opacity: 0;}50%{opacity: 1;}100%{opacity: 1;}}@keyframes rklwhJkdKG_Animation{0%{opacity: 0;}50%{opacity: 1;}100%{opacity: 1;}}@-webkit-keyframes rklwhJkdKG_HJtexJdFM_Animation{0%{-webkit-transform: scale(0, 0);transform: scale(0, 0);}50%{-webkit-transform: scale(1, 1);transform: scale(1, 1);}100%{-webkit-transform: scale(1, 1);transform: scale(1, 1);}}@keyframes rklwhJkdKG_HJtexJdFM_Animation{0%{-webkit-transform: scale(0, 0);transform: scale(0, 0);}50%{-webkit-transform: scale(1, 1);transform: scale(1, 1);}100%{-webkit-transform: scale(1, 1);transform: scale(1, 1);}}#HkDhkydYM *{-webkit-animation-duration: 2s;animation-duration: 2s;-webkit-animation-timing-function: cubic-bezier(0, 0, 1, 1);animation-timing-function: cubic-bezier(0, 0, 1, 1);transform-box: fill-box;-webkit-transform-origin: 50% 50%;transform-origin: 50% 50%;}#rklwhJkdKG{fill: #D1D1D1;-webkit-animation-name: rklwhJkdKG_Animation;animation-name: rklwhJkdKG_Animation;-webkit-transform-origin: undefined;transform-origin: undefined;}#SJEvnyyuFz{fill: #F7DF1E;}#SyBPhkkutM{fill: #F7DF1E;}#SJIvhy1OYM{fill: #F7DF1E;}#rJqw3y1uFz{fill: #9500FF;}#SJ3D2y1_tG{fill: #FFFFFF;}#Byav2yJdFz{fill: #FFFFFF;}#BkAP21yuKM{fill: #FFFFFF;}#r1bev3yy_KM{fill: none;stroke: #9500FF;stroke-width: 2;stroke-miterlimit: 10;}#SyzeD2yydYG{fill: none;stroke: #9500FF;stroke-width: 2;stroke-miterlimit: 10;stroke-dasharray: 5.0077,5.0077;}#ryQlv3yJ_Yf{fill: none;stroke: #9500FF;stroke-width: 2;stroke-miterlimit: 10;}#rklwhJkdKG_HJtexJdFM{-webkit-animation-name: rklwhJkdKG_HJtexJdFM_Animation;animation-name: rklwhJkdKG_HJtexJdFM_Animation;-webkit-transform-origin: undefined;transform-origin: undefined;}#B1fvnyJdFG_HkDLlk_Yz{-webkit-animation-name: B1fvnyJdFG_HkDLlk_Yz_Animation;animation-name: B1fvnyJdFG_HkDLlk_Yz_Animation;-webkit-transform-origin: undefined;transform-origin: undefined;-webkit-animation-timing-function: cubic-bezier(0, 0, 0.58, 1);animation-timing-function: cubic-bezier(0, 0, 0.58, 1);}#B1fvnyJdFG_SkuIgJdKf{-webkit-transform-origin: undefined;transform-origin: undefined;}#B1fvnyJdFG_HkVldUg1uYM{-webkit-animation-name: B1fvnyJdFG_HkVldUg1uYM_Animation;animation-name: B1fvnyJdFG_HkVldUg1uYM_Animation;-webkit-transform-origin: undefined;transform-origin: undefined;-webkit-animation-timing-function: cubic-bezier(0, 0, 0.58, 1);animation-timing-function: cubic-bezier(0, 0, 0.58, 1);}#B1fvnyJdFG{-webkit-animation-name: B1fvnyJdFG_Animation;animation-name: B1fvnyJdFG_Animation;-webkit-transform-origin: undefined;transform-origin: undefined;-webkit-animation-timing-function: cubic-bezier(0, 0, 0.58, 1);animation-timing-function: cubic-bezier(0, 0, 0.58, 1);}#B1fvnyJdFG_BkuneJ_Kf{-webkit-animation-name: B1fvnyJdFG_BkuneJ_Kf_Animation;animation-name: B1fvnyJdFG_BkuneJ_Kf_Animation;-webkit-transform-origin: undefined;transform-origin: undefined;-webkit-animation-timing-function: cubic-bezier(0, 0, 0.58, 1);animation-timing-function: cubic-bezier(0, 0, 0.58, 1);}#SyWP21ydYM_HJ6gZyOtf{-webkit-animation-name: SyWP21ydYM_HJ6gZyOtf_Animation;animation-name: SyWP21ydYM_HJ6gZyOtf_Animation;-webkit-transform-origin: undefined;transform-origin: undefined;}#SyWP21ydYM_S1u-0xbydKf{-webkit-animation-name: SyWP21ydYM_S1u-0xbydKf_Animation;animation-name: SyWP21ydYM_S1u-0xbydKf_Animation;-webkit-transform-origin: undefined;transform-origin: undefined;}#SyWP21ydYM{-webkit-animation-name: SyWP21ydYM_Animation;animation-name: SyWP21ydYM_Animation;-webkit-transform-origin: undefined;transform-origin: undefined;}#SyWP21ydYM_S1RlWkOtG{-webkit-animation-name: SyWP21ydYM_S1RlWkOtG_Animation;animation-name: SyWP21ydYM_S1RlWkOtG_Animation;-webkit-transform-origin: undefined;transform-origin: undefined;}#SkXw3kkOYz_BJrLbJOKG{-webkit-animation-name: SkXw3kkOYz_BJrLbJOKG_Animation;animation-name: SkXw3kkOYz_BJrLbJOKG_Animation;-webkit-transform-origin: undefined;transform-origin: undefined;-webkit-animation-timing-function: cubic-bezier(0.42, 0, 1, 1);animation-timing-function: cubic-bezier(0.42, 0, 1, 1);}#SkXw3kkOYz{-webkit-animation-name: SkXw3kkOYz_Animation;animation-name: SkXw3kkOYz_Animation;-webkit-transform-origin: undefined;transform-origin: undefined;-webkit-animation-timing-function: cubic-bezier(0.42, 0, 1, 1);animation-timing-function: cubic-bezier(0.42, 0, 1, 1);}#SyFDnkyOtf_rJEbfJdYf{-webkit-animation-name: SyFDnkyOtf_rJEbfJdYf_Animation;animation-name: SyFDnkyOtf_rJEbfJdYf_Animation;-webkit-transform-origin: undefined;transform-origin: undefined;}
    </style>
    <g id="rklwhJkdKG_HJtexJdFM" data-animator-group="true" data-animator-type="2">
        <rect x="0.6" y="22.9" width="347.3" height="347.3" id="rklwhJkdKG"/>
    </g>
    <g id="SyWP21ydYM_HJ6gZyOtf" data-animator-group="true" data-animator-type="0">
        <g id="SyWP21ydYM_S1RlWkOtG" data-animator-group="true" data-animator-type="1">
            <g id="SyWP21ydYM_S1u-0xbydKf" data-animator-group="true" data-animator-type="2">
                <path d="M233.9,294.2c7,11.4,16.1,19.8,32.2,19.8c13.5,0,22.2-6.8,22.2-16.1c0-11.2-8.9-15.2-23.8-21.7l-8.2-3.5&#10;&#9;c-23.5-10-39.2-22.6-39.2-49.2c0-24.5,18.6-43.1,47.8-43.1c20.7,0,35.7,7.2,46.4,26.1l-25.4,16.3c-5.6-10-11.6-14-21-14&#10;&#9;c-9.6,0-15.6,6.1-15.6,14c0,9.8,6.1,13.8,20.1,19.8l8.2,3.5c27.7,11.9,43.4,24,43.4,51.3c0,29.4-23.1,45.5-54.1,45.5&#10;&#9;c-30.3,0-49.9-14.4-59.5-33.4L233.9,294.2z" id="SyWP21ydYM"/>
            </g>
        </g>
    </g>
    <g id="B1fvnyJdFG_HkDLlk_Yz" data-animator-group="true" data-animator-type="0">
        <g id="B1fvnyJdFG_BkuneJ_Kf" data-animator-group="true" data-animator-type="1">
            <g id="B1fvnyJdFG_HkVldUg1uYM" data-animator-group="true" data-animator-type="2">
                <path d="M118.6,297c5.1,9.1,9.8,16.8,21,16.8c10.7,0,17.5-4.2,17.5-20.5v-111h32.6v111.4c0,33.8-19.8,49.2-48.7,49.2&#10;&#9;c-26.1,0-41.3-13.5-49-29.8L118.6,297z" id="B1fvnyJdFG"/>
            </g>
        </g>
    </g>
    <g id="SkXw3kkOYz_BJrLbJOKG" data-animator-group="true" data-animator-type="2">
        <g id="SkXw3kkOYz">
            <path d="M139.6,313.8c8.5,0,14.6-2.7,16.7-12h-34.9C125.6,308.7,130.4,313.8,139.6,313.8z" id="SJEvnyyuFz"/>
            <path d="M266.1,314c11.6,0,19.5-4.9,21.6-12.2h-48.3C245.7,309.2,253.8,314,266.1,314z" id="SyBPhkkutM"/>
            <path d="M320.7,301.8c-2.2,26.6-24.4,41.2-53.9,41.2c-30.3,0-49.9-14.4-59.5-33.4l13.4-7.8h-31.5&#10;&#9;&#9;c-3,28.2-21.8,41.1-48.3,41.1c-26.1,0-41.3-13.5-49-29.8l18.7-11.3H0.6v68.4h347.3v-68.4H320.7z" id="SJIvhy1OYM"/>
            <path d="M139.6,313.8c-9.2,0-14-5.1-18.2-12h-10.7L92,313.1c7.7,16.3,22.8,29.8,49,29.8c26.5,0,45.3-12.9,48.3-41.1h-33&#10;&#9;&#9;C154.2,311.2,148.1,313.8,139.6,313.8z" id="HJDwnJy_tf"/>
            <path d="M266.1,314c-12.2,0-20.4-4.9-26.7-12.2h-18.6l-13.4,7.8c9.6,18.9,29.2,33.4,59.5,33.4c29.4,0,51.7-14.5,53.9-41.2h-33&#10;&#9;&#9;C285.6,309.1,277.6,314,266.1,314z" id="Skuw3k1_Yz"/>
        </g>
    </g>
    <g id="SyFDnkyOtf_rJEbfJdYf" data-animator-group="true" data-animator-type="0">
        <g id="SyFDnkyOtf">
            <circle cx="375.2" cy="301.6" r="24.1" id="rJqw3y1uFz"/>
            <g id="B1sD2kJ_Kf">
                <path d="M362.8,309.9v-2.3l4.3-8.2c0.2-0.4,0.3-0.8,0.4-1.1c0-0.3,0-0.7,0-1.1c0-0.2,0-0.4,0-0.6&#10;&#9;&#9;&#9;c0-0.2-0.1-0.4-0.1-0.6c-0.1-0.2-0.2-0.3-0.4-0.4c-0.2-0.1-0.4-0.2-0.7-0.2c-0.4,0-0.6,0.1-0.9,0.3c-0.2,0.2-0.3,0.5-0.3,0.9v1.4&#10;&#9;&#9;&#9;h-2.4v-1.3c0-0.5,0.1-1,0.3-1.4c0.2-0.4,0.4-0.8,0.8-1.2c0.3-0.3,0.7-0.6,1.1-0.8c0.4-0.2,0.9-0.3,1.4-0.3c0.6,0,1.2,0.1,1.6,0.3&#10;&#9;&#9;&#9;c0.4,0.2,0.8,0.5,1.1,0.9c0.3,0.4,0.5,0.8,0.6,1.3c0.1,0.5,0.2,1,0.2,1.6c0,0.4,0,0.8,0,1c0,0.3,0,0.5-0.1,0.8&#10;&#9;&#9;&#9;c0,0.3-0.1,0.5-0.2,0.8c-0.1,0.3-0.3,0.6-0.4,0.9l-3.5,6.8h4.3v2.4H362.8z" id="SJ3D2y1_tG"/>
                <path d="M371.5,296.6c0-0.6,0.1-1.1,0.3-1.5c0.2-0.4,0.5-0.8,0.8-1.1c0.3-0.3,0.7-0.6,1.1-0.7&#10;&#9;&#9;&#9;c0.4-0.2,0.9-0.2,1.4-0.2s0.9,0.1,1.4,0.2c0.4,0.2,0.8,0.4,1.1,0.7c0.3,0.3,0.6,0.7,0.8,1.1c0.2,0.4,0.3,0.9,0.3,1.5v9.9&#10;&#9;&#9;&#9;c0,0.6-0.1,1.1-0.3,1.5c-0.2,0.4-0.5,0.8-0.8,1.1c-0.3,0.3-0.7,0.6-1.1,0.7c-0.4,0.2-0.9,0.2-1.4,0.2s-0.9-0.1-1.4-0.2&#10;&#9;&#9;&#9;c-0.4-0.2-0.8-0.4-1.1-0.7c-0.3-0.3-0.6-0.7-0.8-1.1c-0.2-0.4-0.3-0.9-0.3-1.5V296.6z M374,306.5c0,0.3,0.1,0.6,0.3,0.9&#10;&#9;&#9;&#9;c0.2,0.2,0.5,0.3,0.8,0.3c0.3,0,0.6-0.1,0.8-0.3c0.2-0.2,0.3-0.5,0.3-0.9v-9.9c0-0.3-0.1-0.6-0.3-0.9c-0.2-0.2-0.5-0.3-0.8-0.3&#10;&#9;&#9;&#9;c-0.3,0-0.6,0.1-0.8,0.3c-0.2,0.2-0.3,0.5-0.3,0.9V306.5z" id="Byav2yJdFz"/>
                <path d="M381.7,298.3c-0.6,0-1.1-0.2-1.5-0.5c-0.4-0.3-0.5-0.8-0.5-1.3V295c0-0.6,0.2-1.1,0.5-1.4&#10;&#9;&#9;&#9;c0.4-0.3,0.8-0.5,1.5-0.5c0.6,0,1.1,0.2,1.5,0.5c0.4,0.3,0.5,0.8,0.5,1.4v1.5c0,0.5-0.2,1-0.5,1.3&#10;&#9;&#9;&#9;C382.8,298.1,382.3,298.3,381.7,298.3z M380,309.9l5.7-16.8h1.6l-5.7,16.8H380z M381.7,296.9c0.2,0,0.3-0.1,0.4-0.2&#10;&#9;&#9;&#9;c0.1-0.1,0.2-0.3,0.2-0.4v-1.2c0-0.2-0.1-0.3-0.2-0.4c-0.1-0.1-0.3-0.2-0.4-0.2c-0.2,0-0.3,0.1-0.4,0.2c-0.1,0.1-0.2,0.3-0.2,0.4&#10;&#9;&#9;&#9;v1.2c0,0.2,0.1,0.3,0.2,0.4C381.4,296.8,381.6,296.9,381.7,296.9z M385.6,310.1c-0.6,0-1.1-0.2-1.5-0.5c-0.4-0.3-0.5-0.8-0.5-1.3&#10;&#9;&#9;&#9;v-1.5c0-0.6,0.2-1.1,0.5-1.4c0.4-0.3,0.8-0.5,1.5-0.5c0.6,0,1.1,0.2,1.5,0.5c0.4,0.3,0.5,0.8,0.5,1.4v1.5c0,0.5-0.2,1-0.5,1.3&#10;&#9;&#9;&#9;C386.7,309.9,386.2,310.1,385.6,310.1z M385,308.1c0,0.2,0.1,0.3,0.2,0.4c0.1,0.1,0.3,0.2,0.4,0.2c0.2,0,0.3-0.1,0.4-0.2&#10;&#9;&#9;&#9;c0.1-0.1,0.2-0.3,0.2-0.4v-1.2c0-0.2-0.1-0.3-0.2-0.4s-0.3-0.2-0.4-0.2c-0.2,0-0.3,0.1-0.4,0.2s-0.2,0.3-0.2,0.4V308.1z" id="BkAP21yuKM"/>
            </g>
            <g id="HJylv31y_tM">
                <g id="ByggPnyJdYf">
                    <line x1="351.1" y1="302.1" x2="348.6" y2="302.1" id="r1bev3yy_KM"/>
                    <line x1="343.6" y1="302.1" x2="5.6" y2="302.1" id="SyzeD2yydYG"/>
                    <line x1="3.1" y1="302.1" x2="0.6" y2="302.1" id="ryQlv3yJ_Yf"/>
                </g>
            </g>
        </g>
    </g>
</svg>