<svg version="1.1" id="rkhbQMuYG" xmlns="http://www.w3.org/2000/svg" xmlns:xlink="http://www.w3.org/1999/xlink" x="0px" y="0px" viewBox="0 0 400 400" style="enable-background:new 0 0 400 400;">
    <style type="text/css">
        @-webkit-keyframes B1Mh-mzOYG_ByVyVzdKz_Animation{0%{-webkit-transform: translate(-80px, 10px);transform: translate(-80px, 10px);}12.50%{-webkit-transform: translate(-67.25px, 0px);transform: translate(-67.25px, 0px);}25%{-webkit-transform: translate(-54.5px, 10px);transform: translate(-54.5px, 10px);}37.50%{-webkit-transform: translate(-41.75px, 0px);transform: translate(-41.75px, 0px);}50%{-webkit-transform: translate(-29px, 10px);transform: translate(-29px, 10px);}62.50%{-webkit-transform: translate(-16.25px, 0px);transform: translate(-16.25px, 0px);}75%{-webkit-transform: translate(-3.5px, 10px);transform: translate(-3.5px, 10px);}87.50%{-webkit-transform: translate(9.25px, 0px);transform: translate(9.25px, 0px);}100%{-webkit-transform: translate(22px, 10px);transform: translate(22px, 10px);}}@keyframes B1Mh-mzOYG_ByVyVzdKz_Animation{0%{-webkit-transform: translate(-80px, 10px);transform: translate(-80px, 10px);}12.50%{-webkit-transform: translate(-67.25px, 0px);transform: translate(-67.25px, 0px);}25%{-webkit-transform: translate(-54.5px, 10px);transform: translate(-54.5px, 10px);}37.50%{-webkit-transform: translate(-41.75px, 0px);transform: translate(-41.75px, 0px);}50%{-webkit-transform: translate(-29px, 10px);transform: translate(-29px, 10px);}62.50%{-webkit-transform: translate(-16.25px, 0px);transform: translate(-16.25px, 0px);}75%{-webkit-transform: translate(-3.5px, 10px);transform: translate(-3.5px, 10px);}87.50%{-webkit-transform: translate(9.25px, 0px);transform: translate(9.25px, 0px);}100%{-webkit-transform: translate(22px, 10px);transform: translate(22px, 10px);}}@-webkit-keyframes rJX3WXGOKM_r17G7GuYG_Animation{0%{-webkit-transform: translate(90px, 0px);transform: translate(90px, 0px);}12.50%{-webkit-transform: translate(77.5px, 10px);transform: translate(77.5px, 10px);}25%{-webkit-transform: translate(65px, 0px);transform: translate(65px, 0px);}37.50%{-webkit-transform: translate(52.5px, 10px);transform: translate(52.5px, 10px);}50%{-webkit-transform: translate(40px, 0px);transform: translate(40px, 0px);}62.50%{-webkit-transform: translate(27.5px, 10px);transform: translate(27.5px, 10px);}75%{-webkit-transform: translate(15px, 0px);transform: translate(15px, 0px);}87.50%{-webkit-transform: translate(2.5px, 10px);transform: translate(2.5px, 10px);}100%{-webkit-transform: translate(-10px, 0px);transform: translate(-10px, 0px);}}@keyframes rJX3WXGOKM_r17G7GuYG_Animation{0%{-webkit-transform: translate(90px, 0px);transform: translate(90px, 0px);}12.50%{-webkit-transform: translate(77.5px, 10px);transform: translate(77.5px, 10px);}25%{-webkit-transform: translate(65px, 0px);transform: translate(65px, 0px);}37.50%{-webkit-transform: translate(52.5px, 10px);transform: translate(52.5px, 10px);}50%{-webkit-transform: translate(40px, 0px);transform: translate(40px, 0px);}62.50%{-webkit-transform: translate(27.5px, 10px);transform: translate(27.5px, 10px);}75%{-webkit-transform: translate(15px, 0px);transform: translate(15px, 0px);}87.50%{-webkit-transform: translate(2.5px, 10px);transform: translate(2.5px, 10px);}100%{-webkit-transform: translate(-10px, 0px);transform: translate(-10px, 0px);}}#rkhbQMuYG *{-webkit-animation-duration: 4s;animation-duration: 4s;-webkit-animation-iteration-count: infinite;animation-iteration-count: infinite;-webkit-animation-timing-function: cubic-bezier(0, 0, 1, 1);animation-timing-function: cubic-bezier(0, 0, 1, 1);transform-box: fill-box;-webkit-transform-origin: 50% 50%;transform-origin: 50% 50%;}#BJgnWQGOtf{fill: #D1D1D1;}#HJ-hZXzOYM{fill: #FFFFFF;}#B1Mh-mzOYG{fill: #ABC9F4;}#rJX3WXGOKM{fill: #2572F6;}#rJX3WXGOKM_r17G7GuYG{-webkit-animation-name: rJX3WXGOKM_r17G7GuYG_Animation;animation-name: rJX3WXGOKM_r17G7GuYG_Animation;-webkit-transform-origin: undefined;transform-origin: undefined;}#B1Mh-mzOYG_ByVyVzdKz{-webkit-animation-name: B1Mh-mzOYG_ByVyVzdKz_Animation;animation-name: B1Mh-mzOYG_ByVyVzdKz_Animation;-webkit-transform-origin: undefined;transform-origin: undefined;}
    </style>
    <path d="M400-0.7H0.3V399H400V-0.7z" id="BJgnWQGOtf"/>
    <path d="M200.9,72.9c-69.4,0-125.7,52.4-125.7,117.1c0,36.9,18.3,69.7,46.8,91.2v44.7l42.8-23.6&#10;&#9;c11.4,3.2,23.5,4.9,36.1,4.9c69.4,0,125.7-52.4,125.7-117.1S270.3,72.9,200.9,72.9z M213.4,230.6l-32-34.4l-62.5,34.4l68.7-73.4&#10;&#9;l32.8,34.4l61.7-34.4L213.4,230.6z" id="HJ-hZXzOYM"/>
    <g id="B1Mh-mzOYG_ByVyVzdKz" data-animator-group="true" data-animator-type="0">
        <path d="M-45.1,440.5h615.7l-0.5-74.4c-0.1-17.9-22.8-27-36.4-14.6l-0.3,0.3c-8.3,7.6-21.5,7.6-29.8,0l-21.5-19.6&#10;&#9;c-8.3-7.6-21.5-7.6-29.8,0l-21.5,19.6c-8.3,7.6-21.5,7.6-29.8,0l-21.5-19.6c-8.3-7.6-21.5-7.6-29.8,0l-21.5,19.6&#10;&#9;c-8.3,7.6-21.5,7.6-29.8,0l-21.5-19.6c-8.3-7.6-21.5-7.6-29.8,0L226,351.8c-8.3,7.6-21.5,7.6-29.8,0l-21.5-19.6&#10;&#9;c-8.3-7.6-21.5-7.6-29.8,0l-21.5,19.6c-8.3,7.6-21.5,7.6-29.8,0l-21.5-19.6c-8.3-7.6-21.5-7.6-29.8,0L21,351.8&#10;&#9;c-8.3,7.6-21.5,7.6-29.8,0l0,0c-13.6-12.5-36.4-3.3-36.4,14.7V440.5z" id="B1Mh-mzOYG"/>
    </g>
    <g id="rJX3WXGOKM_r17G7GuYG" data-animator-group="true" data-animator-type="0">
        <path d="M409.7,441.7h-602.5v-60.1c0-9.6,4-18.7,11.1-25.4l14-13c14-13.1,36.1-13.1,50.1,0l0,0&#10;&#9;c14,13.1,36.1,13.1,50.1,0l0,0c14-13.1,36.1-13.1,50.1,0l0,0c14,13.1,36.1,13.1,50.1,0l0,0c14-13.1,36.1-13.1,50.1,0l0,0&#10;&#9;c14,13.1,36.1,13.1,50.1,0l0,0c14-13.1,36.1-13.1,50.1,0l0,0c14,13.1,36.1,13.1,50.1,0l0,0c14-13.1,36.1-13.1,50.1,0l0,0&#10;&#9;c14,13.1,36.1,13.1,50.1,0l0,0c14-13.1,36.1-13.1,50.1,0l25.1,23.4L409.7,441.7z" id="rJX3WXGOKM"/>
    </g>
</svg>