<svg version="1.1" id="r1QxR5nMuYf" xmlns="http://www.w3.org/2000/svg" xmlns:xlink="http://www.w3.org/1999/xlink" x="0px" y="0px" viewBox="0 0 400 400" style="enable-background:new 0 0 400 400;">
    <style type="text/css">
        @-webkit-keyframes rJre0c3M_YG_HkIl6fdKf_Animation{0%{-webkit-transform: translate(-180px, 10px);transform: translate(-180px, 10px);}25%{-webkit-transform: translate(-157.5px, 0px);transform: translate(-157.5px, 0px);}50%{-webkit-transform: translate(-135px, 10px);transform: translate(-135px, 10px);}75%{-webkit-transform: translate(-112.5px, 0px);transform: translate(-112.5px, 0px);}100%{-webkit-transform: translate(-90px, 10px);transform: translate(-90px, 10px);}}@keyframes rJre0c3M_YG_HkIl6fdKf_Animation{0%{-webkit-transform: translate(-180px, 10px);transform: translate(-180px, 10px);}25%{-webkit-transform: translate(-157.5px, 0px);transform: translate(-157.5px, 0px);}50%{-webkit-transform: translate(-135px, 10px);transform: translate(-135px, 10px);}75%{-webkit-transform: translate(-112.5px, 0px);transform: translate(-112.5px, 0px);}100%{-webkit-transform: translate(-90px, 10px);transform: translate(-90px, 10px);}}@-webkit-keyframes BJIxC5nGuFz_ryfxTzOtf_Animation{0%{-webkit-transform: translate(100px, 0px);transform: translate(100px, 0px);}25%{-webkit-transform: translate(77.5px, 10px);transform: translate(77.5px, 10px);}50%{-webkit-transform: translate(55px, 0px);transform: translate(55px, 0px);}75%{-webkit-transform: translate(32.5px, 10px);transform: translate(32.5px, 10px);}100%{-webkit-transform: translate(10px, 0px);transform: translate(10px, 0px);}}@keyframes BJIxC5nGuFz_ryfxTzOtf_Animation{0%{-webkit-transform: translate(100px, 0px);transform: translate(100px, 0px);}25%{-webkit-transform: translate(77.5px, 10px);transform: translate(77.5px, 10px);}50%{-webkit-transform: translate(55px, 0px);transform: translate(55px, 0px);}75%{-webkit-transform: translate(32.5px, 10px);transform: translate(32.5px, 10px);}100%{-webkit-transform: translate(10px, 0px);transform: translate(10px, 0px);}}#r1QxR5nMuYf *{-webkit-animation-duration: 4s;animation-duration: 4s;-webkit-animation-iteration-count: infinite;animation-iteration-count: infinite;-webkit-animation-timing-function: cubic-bezier(0, 0, 1, 1);animation-timing-function: cubic-bezier(0, 0, 1, 1);transform-box: fill-box;-webkit-transform-origin: 50% 50%;transform-origin: 50% 50%;}#BJNg0q3MdFf{fill: #D1D1D1;}#rJre0c3M_YG{fill: #E2B0FF;}#BJIxC5nGuFz{fill: #8905CE;}#SkweA9nMOYM{fill: #757575;}#r1_xA9nfuKG{fill: #FFFFFF;fill-opacity: 0.302;}#B1cxCc3fOYf{fill: #FFFFFF;}#HkjeAc2fOKf{fill: #FFFFFF;}#r12e0c2M_YM{fill: #FFFFFF;}#BJIxC5nGuFz_ryfxTzOtf{-webkit-animation-name: BJIxC5nGuFz_ryfxTzOtf_Animation;animation-name: BJIxC5nGuFz_ryfxTzOtf_Animation;-webkit-transform-origin: undefined;transform-origin: undefined;}#rJre0c3M_YG_HkIl6fdKf{-webkit-animation-name: rJre0c3M_YG_HkIl6fdKf_Animation;animation-name: rJre0c3M_YG_HkIl6fdKf_Animation;-webkit-transform-origin: undefined;transform-origin: undefined;}
    </style>
    <rect x="0.6" width="399.4" height="399.4" id="BJNg0q3MdFf"/>
    <g id="rJre0c3M_YG_HkIl6fdKf" data-animator-group="true" data-animator-type="0">
        <path d="M0,399.4h542l-0.5-65.5c-0.1-15.8-20-23.8-32-12.8l-0.3,0.3c-7.3,6.7-18.9,6.7-26.2,0L464.1,304&#10;&#9;c-7.3-6.7-18.9-6.7-26.2,0L419,321.3c-7.3,6.7-18.9,6.7-26.2,0L373.9,304c-7.3-6.7-18.9-6.7-26.2,0l-18.9,17.3&#10;&#9;c-7.3,6.7-18.9,6.7-26.2,0L283.7,304c-7.3-6.7-18.9-6.7-26.2,0l-18.9,17.3c-7.3,6.7-18.9,6.7-26.2,0L193.5,304&#10;&#9;c-7.3-6.7-18.9-6.7-26.2,0l-18.9,17.3c-7.3,6.7-18.9,6.7-26.2,0L103.3,304c-7.3-6.7-18.9-6.7-26.2,0l-18.9,17.3&#10;&#9;c-7.3,6.7-18.9,6.7-26.2,0l0,0c-12-11-32-2.9-32,13L0,399.4z" id="rJre0c3M_YG"/>
    </g>
    <g id="BJIxC5nGuFz_ryfxTzOtf" data-animator-group="true" data-animator-type="0">
        <path d="M400.3,400.4H-130v-52.9c0-8.4,3.5-16.5,9.8-22.3l12.3-11.5c12.3-11.5,31.8-11.5,44.1,0l0,0&#10;&#9;c12.3,11.5,31.8,11.5,44.1,0l0,0c12.3-11.5,31.8-11.5,44.1,0l0,0c12.3,11.5,31.8,11.5,44.1,0l0,0c12.3-11.5,31.8-11.5,44.1,0l0,0&#10;&#9;c12.3,11.5,31.8,11.5,44.1,0l0,0c12.3-11.5,31.8-11.5,44.1,0l0,0c12.3,11.5,31.8,11.5,44.1,0l0,0c12.3-11.5,31.8-11.5,44.1,0l0,0&#10;&#9;c12.3,11.5,31.8,11.5,44.1,0l0,0c12.3-11.5,31.8-11.5,44.1,0l22.1,20.6L400.3,400.4z" id="BJIxC5nGuFz"/>
    </g>
    <path d="M113.2,101.5h171.5l-15.3,175l-69.6,20l-71-20L113.2,101.5z" id="SkweA9nMOYM"/>
    <path d="M199.5,115.9h70.1l-13.7,149.8l-56.3,15.8L199.5,115.9z" id="r1_xA9nfuKG"/>
    <g id="S1KeCq2M_tf">
        <path d="M261.3,233.6l7.6-19.3h22l-10.5-29.3l13.1-33.1l37.4,99.4h-27.6l-6.4-17.8H261.3z" id="B1cxCc3fOYf"/>
        <path d="M237.7,246l40.1-99.4h-26.6l-27.4,64.2l-19.5-64.2h-20.4L163,210.8l-14.8-29.3l-13.4,41.2l13.6,23.3h26.1&#10;&#9;&#9;l18.9-57.6l18,57.6H237.7z" id="HkjeAc2fOKf"/>
        <path d="M92.2,211.9h16.4c5,0,9.4-0.6,13.2-1.7l4.2-13l11.8-36.4c-0.9-1.4-1.9-2.8-3.1-4.1c-6.1-6.7-15-10.1-26.7-10.1&#10;&#9;&#9;H67V246h25.2V211.9z M113.9,169.5c2.4,2.4,3.6,5.6,3.6,9.6c0,4-1,7.2-3.1,9.6c-2.3,2.6-6.5,3.9-12.6,3.9h-9.5v-26.7h9.5&#10;&#9;&#9;C107.5,165.9,111.5,167.1,113.9,169.5z" id="r12e0c2M_YM"/>
    </g>
</svg>